<?xml version="1.0" standalone="no"?>
<!DOCTYPE svg PUBLIC "-//W3C//DTD SVG 20010904//EN"
 "http://www.w3.org/TR/2001/REC-SVG-20010904/DTD/svg10.dtd">
<svg version="1.0" xmlns="http://www.w3.org/2000/svg"
 width="392.000000pt" height="392.000000pt" viewBox="0 0 392.000000 392.000000"
 preserveAspectRatio="xMidYMid meet">
<metadata>
Created by potrace 1.14, written by Peter Selinger 2001-2017
</metadata>
<g transform="translate(0.000000,392.000000) scale(0.100000,-0.100000)"
fill="#000000" stroke="none">
<path d="M3481 3363 c-82 -21 -140 -67 -180 -145 -28 -55 -33 -76 -32 -128 3
-206 210 -342 392 -258 220 101 225 404 9 513 -59 30 -121 36 -189 18z"/>
<path d="M533 2716 c-46 -8 -128 -26 -183 -41 -111 -30 -111 -30 -70 -100 9
-16 46 -85 81 -153 l64 -124 43 7 c24 4 54 8 65 11 12 2 56 4 97 5 189 1 294
-64 304 -188 l4 -52 -37 18 c-34 18 -91 36 -156 50 -16 3 -82 5 -145 5 -132
-1 -215 -25 -313 -88 -141 -89 -205 -212 -202 -381 7 -276 215 -448 532 -440
60 1 120 5 134 9 47 11 113 36 147 56 40 24 46 25 38 5 -3 -8 -2 -23 2 -33 6
-16 27 -17 240 -17 226 0 232 0 233 20 4 94 0 939 -5 970 -21 133 -68 229
-150 310 -67 66 -142 107 -251 138 -91 25 -351 32 -472 13z m326 -895 c86 -44
109 -129 50 -188 -60 -62 -205 -81 -288 -39 -66 35 -94 124 -57 182 18 26 65
54 111 64 52 11 142 2 184 -19z"/>
<path d="M2350 2714 c-70 -19 -150 -60 -189 -96 -17 -16 -35 -27 -39 -24 -4 2
-18 27 -31 54 l-23 49 -217 0 -218 1 0 -1073 c-1 -904 1 -1073 13 -1068 7 3
84 43 171 90 87 47 193 104 236 127 l77 41 0 278 0 278 46 -35 c56 -43 138
-83 191 -93 80 -16 234 -8 303 16 244 85 390 285 435 596 7 50 8 204 1 236 -3
13 -8 45 -11 70 -3 26 -15 75 -26 110 -79 243 -237 398 -458 448 -62 14 -202
11 -261 -5z m108 -433 c43 -22 93 -73 115 -116 43 -86 51 -226 18 -319 -43
-122 -124 -181 -245 -181 -86 1 -139 25 -187 85 l-33 40 1 178 c1 97 2 187 2
200 1 36 81 109 138 125 60 18 143 13 191 -12z"/>
<path d="M3317 2702 c-16 -3 -17 -52 -17 -628 l0 -625 53 29 c28 16 88 48 132
72 44 24 100 54 125 68 25 13 74 40 110 60 36 19 67 37 69 39 6 5 7 974 1 981
-5 7 -441 10 -473 4z"/>
</g>
</svg>
